<?xml version="1.0" standalone="no"?>
<!DOCTYPE svg PUBLIC "-//W3C//DTD SVG 20010904//EN"
 "http://www.w3.org/TR/2001/REC-SVG-20010904/DTD/svg10.dtd">
<svg version="1.0" xmlns="http://www.w3.org/2000/svg"
 width="260.000000pt" height="260.000000pt" viewBox="0 0 260.000000 260.000000"
 preserveAspectRatio="xMidYMid meet">
<metadata>
Created by potrace 1.11, written by Peter Selinger 2001-2013
</metadata>
<g transform="translate(0.000000,260.000000) scale(0.100000,-0.100000)"
fill="#000000" stroke="none">
<path d="M0 1300 l0 -1300 1300 0 1300 0 0 1300 0 1300 -1300 0 -1300 0 0
-1300z m2247 734 c67 -69 123 -128 123 -132 0 -4 -48 -56 -108 -115 l-107
-107 -130 130 -130 130 110 110 c60 60 112 110 114 110 2 0 60 -57 128 -126z
m-407 -284 c0 -3 -189 -195 -420 -426 -231 -230 -420 -424 -420 -430 0 -12 52
-64 66 -64 5 0 199 190 431 422 l423 423 57 -58 58 -57 -563 -563 -563 -563
-226 -103 c-124 -56 -227 -100 -230 -97 -3 2 41 107 97 233 l101 228 562 562
561 563 33 -32 c18 -18 33 -35 33 -38z"/>
<path d="M823 717 c-37 -37 -63 -78 -93 -145 -23 -52 -40 -95 -38 -97 2 -3 49
16 103 40 70 32 113 59 147 92 26 25 45 50 42 55 -3 4 -18 8 -34 8 -47 0 -60
10 -60 44 0 58 -13 59 -67 3z"/>
</g>
</svg>
